<mxfile host="app.diagrams.net" agent="Mozilla/5.0 (Windows NT 10.0; Win64; x64) AppleWebKit/537.36 (KHTML, like Gecko) Chrome/133.0.0.0 Safari/537.36" version="25.0.3">
  <diagram name="Page-1" id="1hOGvvjaj4aH0Ujx-wwU">
    <mxGraphModel dx="1050" dy="671" grid="1" gridSize="10" guides="1" tooltips="1" connect="1" arrows="1" fold="1" page="1" pageScale="1" pageWidth="850" pageHeight="1100" math="0" shadow="0">
      <root>
        <mxCell id="0" />
        <mxCell id="1" parent="0" />
        <mxCell id="M_eiNCeGALxr4e18v2u4-3" style="edgeStyle=orthogonalEdgeStyle;rounded=0;orthogonalLoop=1;jettySize=auto;html=1;" edge="1" parent="1" source="M_eiNCeGALxr4e18v2u4-2">
          <mxGeometry relative="1" as="geometry">
            <mxPoint x="310" y="60" as="targetPoint" />
          </mxGeometry>
        </mxCell>
        <mxCell id="M_eiNCeGALxr4e18v2u4-2" value="Official Odoo source (GitHub)" style="rounded=0;whiteSpace=wrap;html=1;" vertex="1" parent="1">
          <mxGeometry x="50" y="30" width="120" height="60" as="geometry" />
        </mxCell>
        <mxCell id="M_eiNCeGALxr4e18v2u4-4" value="Clone" style="text;html=1;align=center;verticalAlign=middle;resizable=0;points=[];autosize=1;strokeColor=none;fillColor=none;" vertex="1" parent="1">
          <mxGeometry x="215" y="28" width="50" height="30" as="geometry" />
        </mxCell>
        <mxCell id="M_eiNCeGALxr4e18v2u4-6" style="edgeStyle=orthogonalEdgeStyle;rounded=0;orthogonalLoop=1;jettySize=auto;html=1;" edge="1" parent="1" source="M_eiNCeGALxr4e18v2u4-5">
          <mxGeometry relative="1" as="geometry">
            <mxPoint x="570" y="60" as="targetPoint" />
          </mxGeometry>
        </mxCell>
        <mxCell id="M_eiNCeGALxr4e18v2u4-5" value="VM w/ Git *" style="rounded=0;whiteSpace=wrap;html=1;" vertex="1" parent="1">
          <mxGeometry x="310" y="30" width="120" height="60" as="geometry" />
        </mxCell>
        <mxCell id="M_eiNCeGALxr4e18v2u4-7" value="Local Repo of Odoo" style="whiteSpace=wrap;html=1;" vertex="1" parent="1">
          <mxGeometry x="560" y="30" width="120" height="60" as="geometry" />
        </mxCell>
        <mxCell id="M_eiNCeGALxr4e18v2u4-8" value="Push" style="text;html=1;align=center;verticalAlign=middle;resizable=0;points=[];autosize=1;strokeColor=none;fillColor=none;" vertex="1" parent="1">
          <mxGeometry x="465" y="28" width="50" height="30" as="geometry" />
        </mxCell>
        <mxCell id="M_eiNCeGALxr4e18v2u4-17" style="edgeStyle=orthogonalEdgeStyle;rounded=0;orthogonalLoop=1;jettySize=auto;html=1;" edge="1" parent="1" source="M_eiNCeGALxr4e18v2u4-9" target="M_eiNCeGALxr4e18v2u4-11">
          <mxGeometry relative="1" as="geometry">
            <mxPoint x="205" y="410" as="targetPoint" />
          </mxGeometry>
        </mxCell>
        <mxCell id="M_eiNCeGALxr4e18v2u4-18" style="edgeStyle=orthogonalEdgeStyle;rounded=0;orthogonalLoop=1;jettySize=auto;html=1;" edge="1" parent="1" source="M_eiNCeGALxr4e18v2u4-9" target="M_eiNCeGALxr4e18v2u4-13">
          <mxGeometry relative="1" as="geometry" />
        </mxCell>
        <mxCell id="M_eiNCeGALxr4e18v2u4-19" style="edgeStyle=orthogonalEdgeStyle;rounded=0;orthogonalLoop=1;jettySize=auto;html=1;" edge="1" parent="1" source="M_eiNCeGALxr4e18v2u4-9" target="M_eiNCeGALxr4e18v2u4-12">
          <mxGeometry relative="1" as="geometry" />
        </mxCell>
        <mxCell id="M_eiNCeGALxr4e18v2u4-9" value="Local Repo of Odoo" style="whiteSpace=wrap;html=1;" vertex="1" parent="1">
          <mxGeometry x="360" y="190" width="120" height="60" as="geometry" />
        </mxCell>
        <mxCell id="M_eiNCeGALxr4e18v2u4-10" value="Prod" style="text;html=1;align=center;verticalAlign=middle;resizable=0;points=[];autosize=1;strokeColor=none;fillColor=none;" vertex="1" parent="1">
          <mxGeometry x="395" y="160" width="50" height="30" as="geometry" />
        </mxCell>
        <mxCell id="M_eiNCeGALxr4e18v2u4-24" style="edgeStyle=orthogonalEdgeStyle;rounded=0;orthogonalLoop=1;jettySize=auto;html=1;entryX=0;entryY=0.5;entryDx=0;entryDy=0;" edge="1" parent="1" source="M_eiNCeGALxr4e18v2u4-11" target="M_eiNCeGALxr4e18v2u4-9">
          <mxGeometry relative="1" as="geometry">
            <Array as="points">
              <mxPoint x="220" y="220" />
            </Array>
          </mxGeometry>
        </mxCell>
        <mxCell id="M_eiNCeGALxr4e18v2u4-11" value="" style="sketch=0;verticalLabelPosition=bottom;sketch=0;aspect=fixed;html=1;verticalAlign=top;strokeColor=none;fillColor=#000000;align=center;outlineConnect=0;pointerEvents=1;shape=mxgraph.citrix2.desktop;" vertex="1" parent="1">
          <mxGeometry x="195" y="420" width="50" height="38.66" as="geometry" />
        </mxCell>
        <mxCell id="M_eiNCeGALxr4e18v2u4-29" style="edgeStyle=orthogonalEdgeStyle;rounded=0;orthogonalLoop=1;jettySize=auto;html=1;" edge="1" parent="1" source="M_eiNCeGALxr4e18v2u4-12">
          <mxGeometry relative="1" as="geometry">
            <mxPoint x="420" y="250" as="targetPoint" />
          </mxGeometry>
        </mxCell>
        <mxCell id="M_eiNCeGALxr4e18v2u4-12" value="" style="sketch=0;verticalLabelPosition=bottom;sketch=0;aspect=fixed;html=1;verticalAlign=top;strokeColor=none;fillColor=#000000;align=center;outlineConnect=0;pointerEvents=1;shape=mxgraph.citrix2.desktop;" vertex="1" parent="1">
          <mxGeometry x="395" y="420" width="50" height="38.66" as="geometry" />
        </mxCell>
        <mxCell id="M_eiNCeGALxr4e18v2u4-28" style="edgeStyle=orthogonalEdgeStyle;rounded=0;orthogonalLoop=1;jettySize=auto;html=1;entryX=1;entryY=0.5;entryDx=0;entryDy=0;" edge="1" parent="1" source="M_eiNCeGALxr4e18v2u4-13" target="M_eiNCeGALxr4e18v2u4-9">
          <mxGeometry relative="1" as="geometry">
            <Array as="points">
              <mxPoint x="630" y="220" />
            </Array>
          </mxGeometry>
        </mxCell>
        <mxCell id="M_eiNCeGALxr4e18v2u4-13" value="" style="sketch=0;verticalLabelPosition=bottom;sketch=0;aspect=fixed;html=1;verticalAlign=top;strokeColor=none;fillColor=#000000;align=center;outlineConnect=0;pointerEvents=1;shape=mxgraph.citrix2.desktop;" vertex="1" parent="1">
          <mxGeometry x="605" y="420" width="50" height="38.66" as="geometry" />
        </mxCell>
        <mxCell id="M_eiNCeGALxr4e18v2u4-20" value="Pull" style="text;html=1;align=center;verticalAlign=middle;resizable=0;points=[];autosize=1;strokeColor=none;fillColor=none;" vertex="1" parent="1">
          <mxGeometry x="235" y="180" width="40" height="30" as="geometry" />
        </mxCell>
        <mxCell id="M_eiNCeGALxr4e18v2u4-21" value="Pull" style="text;html=1;align=center;verticalAlign=middle;resizable=0;points=[];autosize=1;strokeColor=none;fillColor=none;" vertex="1" parent="1">
          <mxGeometry x="385" y="298" width="40" height="30" as="geometry" />
        </mxCell>
        <mxCell id="M_eiNCeGALxr4e18v2u4-22" value="Pull" style="text;html=1;align=center;verticalAlign=middle;resizable=0;points=[];autosize=1;strokeColor=none;fillColor=none;" vertex="1" parent="1">
          <mxGeometry x="565" y="188" width="40" height="30" as="geometry" />
        </mxCell>
        <mxCell id="M_eiNCeGALxr4e18v2u4-25" value="Push" style="text;html=1;align=center;verticalAlign=middle;resizable=0;points=[];autosize=1;strokeColor=none;fillColor=none;" vertex="1" parent="1">
          <mxGeometry x="225" y="280" width="50" height="30" as="geometry" />
        </mxCell>
        <mxCell id="M_eiNCeGALxr4e18v2u4-26" value="Push" style="text;html=1;align=center;verticalAlign=middle;resizable=0;points=[];autosize=1;strokeColor=none;fillColor=none;" vertex="1" parent="1">
          <mxGeometry x="425" y="298" width="50" height="30" as="geometry" />
        </mxCell>
        <mxCell id="M_eiNCeGALxr4e18v2u4-27" value="Push" style="text;html=1;align=center;verticalAlign=middle;resizable=0;points=[];autosize=1;strokeColor=none;fillColor=none;" vertex="1" parent="1">
          <mxGeometry x="575" y="280" width="50" height="30" as="geometry" />
        </mxCell>
        <mxCell id="M_eiNCeGALxr4e18v2u4-35" style="edgeStyle=orthogonalEdgeStyle;rounded=0;orthogonalLoop=1;jettySize=auto;html=1;" edge="1" parent="1" source="M_eiNCeGALxr4e18v2u4-31">
          <mxGeometry relative="1" as="geometry">
            <mxPoint x="405" y="770" as="targetPoint" />
          </mxGeometry>
        </mxCell>
        <mxCell id="M_eiNCeGALxr4e18v2u4-31" value="VM w/ Git" style="rounded=0;whiteSpace=wrap;html=1;" vertex="1" parent="1">
          <mxGeometry x="345" y="550" width="120" height="60" as="geometry" />
        </mxCell>
        <mxCell id="M_eiNCeGALxr4e18v2u4-34" style="edgeStyle=orthogonalEdgeStyle;rounded=0;orthogonalLoop=1;jettySize=auto;html=1;" edge="1" parent="1" source="M_eiNCeGALxr4e18v2u4-32" target="M_eiNCeGALxr4e18v2u4-31">
          <mxGeometry relative="1" as="geometry" />
        </mxCell>
        <mxCell id="M_eiNCeGALxr4e18v2u4-32" value="Portainer" style="rounded=0;whiteSpace=wrap;html=1;" vertex="1" parent="1">
          <mxGeometry x="40" y="550" width="120" height="60" as="geometry" />
        </mxCell>
        <mxCell id="M_eiNCeGALxr4e18v2u4-36" value="Deploy" style="whiteSpace=wrap;html=1;" vertex="1" parent="1">
          <mxGeometry x="345" y="770" width="120" height="60" as="geometry" />
        </mxCell>
        <mxCell id="M_eiNCeGALxr4e18v2u4-37" value="Deployed using Git Repository" style="text;html=1;align=center;verticalAlign=middle;resizable=0;points=[];autosize=1;strokeColor=none;fillColor=none;" vertex="1" parent="1">
          <mxGeometry x="315" y="678" width="180" height="30" as="geometry" />
        </mxCell>
        <mxCell id="M_eiNCeGALxr4e18v2u4-38" value="*Database is already separated" style="text;html=1;align=center;verticalAlign=middle;resizable=0;points=[];autosize=1;strokeColor=none;fillColor=none;" vertex="1" parent="1">
          <mxGeometry x="265" y="100" width="190" height="30" as="geometry" />
        </mxCell>
      </root>
    </mxGraphModel>
  </diagram>
</mxfile>
